<mxfile host="app.diagrams.net" modified="2021-06-09T14:03:28.959Z" agent="5.0 (Windows)" etag="1bhGHjuw7pLTACeENot5" version="14.7.6" type="github">
  <diagram id="C5RBs43oDa-KdzZeNtuy" name="Page-1">
    <mxGraphModel dx="4013" dy="1448" grid="1" gridSize="10" guides="1" tooltips="1" connect="1" arrows="1" fold="1" page="1" pageScale="1" pageWidth="1169" pageHeight="827" math="0" shadow="0">
      <root>
        <mxCell id="WIyWlLk6GJQsqaUBKTNV-0" />
        <mxCell id="WIyWlLk6GJQsqaUBKTNV-1" parent="WIyWlLk6GJQsqaUBKTNV-0" />
        <mxCell id="xRkeG2comi5cFcVgzmJm-17" style="edgeStyle=orthogonalEdgeStyle;rounded=0;orthogonalLoop=1;jettySize=auto;html=1;exitX=0.5;exitY=1;exitDx=0;exitDy=0;entryX=0.5;entryY=0;entryDx=0;entryDy=0;" edge="1" parent="WIyWlLk6GJQsqaUBKTNV-1" source="WIyWlLk6GJQsqaUBKTNV-3" target="xRkeG2comi5cFcVgzmJm-6">
          <mxGeometry relative="1" as="geometry" />
        </mxCell>
        <mxCell id="xRkeG2comi5cFcVgzmJm-18" style="edgeStyle=orthogonalEdgeStyle;rounded=0;orthogonalLoop=1;jettySize=auto;html=1;exitX=0.5;exitY=1;exitDx=0;exitDy=0;entryX=0.5;entryY=0;entryDx=0;entryDy=0;" edge="1" parent="WIyWlLk6GJQsqaUBKTNV-1" source="WIyWlLk6GJQsqaUBKTNV-3" target="xRkeG2comi5cFcVgzmJm-0">
          <mxGeometry relative="1" as="geometry" />
        </mxCell>
        <mxCell id="xRkeG2comi5cFcVgzmJm-43" style="edgeStyle=orthogonalEdgeStyle;rounded=0;orthogonalLoop=1;jettySize=auto;html=1;exitX=0.5;exitY=1;exitDx=0;exitDy=0;entryX=0.5;entryY=0;entryDx=0;entryDy=0;" edge="1" parent="WIyWlLk6GJQsqaUBKTNV-1" source="WIyWlLk6GJQsqaUBKTNV-3" target="xRkeG2comi5cFcVgzmJm-5">
          <mxGeometry relative="1" as="geometry" />
        </mxCell>
        <mxCell id="xRkeG2comi5cFcVgzmJm-44" style="edgeStyle=orthogonalEdgeStyle;rounded=0;orthogonalLoop=1;jettySize=auto;html=1;exitX=0.5;exitY=1;exitDx=0;exitDy=0;entryX=0.5;entryY=0;entryDx=0;entryDy=0;" edge="1" parent="WIyWlLk6GJQsqaUBKTNV-1" source="WIyWlLk6GJQsqaUBKTNV-3" target="xRkeG2comi5cFcVgzmJm-7">
          <mxGeometry relative="1" as="geometry" />
        </mxCell>
        <mxCell id="xRkeG2comi5cFcVgzmJm-49" style="edgeStyle=orthogonalEdgeStyle;rounded=0;orthogonalLoop=1;jettySize=auto;html=1;exitX=0.5;exitY=1;exitDx=0;exitDy=0;entryX=0.5;entryY=0;entryDx=0;entryDy=0;" edge="1" parent="WIyWlLk6GJQsqaUBKTNV-1" source="WIyWlLk6GJQsqaUBKTNV-3" target="xRkeG2comi5cFcVgzmJm-8">
          <mxGeometry relative="1" as="geometry" />
        </mxCell>
        <mxCell id="WIyWlLk6GJQsqaUBKTNV-3" value="Hallo Krypto!" style="rounded=1;whiteSpace=wrap;html=1;fontSize=12;glass=0;strokeWidth=1;shadow=0;fillColor=#d5e8d4;strokeColor=#82b366;" parent="WIyWlLk6GJQsqaUBKTNV-1" vertex="1">
          <mxGeometry x="-140" y="100" width="115" height="40" as="geometry" />
        </mxCell>
        <mxCell id="xRkeG2comi5cFcVgzmJm-12" style="rounded=0;orthogonalLoop=1;jettySize=auto;html=1;entryX=0.421;entryY=0;entryDx=0;entryDy=0;entryPerimeter=0;" edge="1" parent="WIyWlLk6GJQsqaUBKTNV-1" source="xRkeG2comi5cFcVgzmJm-0" target="xRkeG2comi5cFcVgzmJm-1">
          <mxGeometry relative="1" as="geometry" />
        </mxCell>
        <mxCell id="xRkeG2comi5cFcVgzmJm-0" value="unbekannte Frage" style="rounded=1;whiteSpace=wrap;html=1;fillColor=#ffe6cc;strokeColor=#d79b00;" vertex="1" parent="WIyWlLk6GJQsqaUBKTNV-1">
          <mxGeometry x="720" y="220" width="120" height="60" as="geometry" />
        </mxCell>
        <mxCell id="xRkeG2comi5cFcVgzmJm-83" style="edgeStyle=orthogonalEdgeStyle;rounded=0;orthogonalLoop=1;jettySize=auto;html=1;exitX=1;exitY=0.5;exitDx=0;exitDy=0;" edge="1" parent="WIyWlLk6GJQsqaUBKTNV-1" source="xRkeG2comi5cFcVgzmJm-1">
          <mxGeometry relative="1" as="geometry">
            <mxPoint x="940" y="350.28571428571445" as="targetPoint" />
          </mxGeometry>
        </mxCell>
        <mxCell id="xRkeG2comi5cFcVgzmJm-84" style="edgeStyle=orthogonalEdgeStyle;rounded=0;orthogonalLoop=1;jettySize=auto;html=1;exitX=0.5;exitY=1;exitDx=0;exitDy=0;entryX=0.5;entryY=1;entryDx=0;entryDy=0;" edge="1" parent="WIyWlLk6GJQsqaUBKTNV-1" source="xRkeG2comi5cFcVgzmJm-1" target="xRkeG2comi5cFcVgzmJm-35">
          <mxGeometry relative="1" as="geometry" />
        </mxCell>
        <mxCell id="xRkeG2comi5cFcVgzmJm-1" value="Hey Leonie, auf diese Frage habe ich leider keine Antwort. Versuche eine andere Frage." style="rounded=1;whiteSpace=wrap;html=1;fillColor=#f8cecc;strokeColor=#b85450;" vertex="1" parent="WIyWlLk6GJQsqaUBKTNV-1">
          <mxGeometry x="700" y="320" width="190" height="60" as="geometry" />
        </mxCell>
        <mxCell id="xRkeG2comi5cFcVgzmJm-41" style="edgeStyle=orthogonalEdgeStyle;rounded=0;orthogonalLoop=1;jettySize=auto;html=1;exitX=0.5;exitY=1;exitDx=0;exitDy=0;entryX=0.5;entryY=0;entryDx=0;entryDy=0;" edge="1" parent="WIyWlLk6GJQsqaUBKTNV-1" source="xRkeG2comi5cFcVgzmJm-5" target="xRkeG2comi5cFcVgzmJm-39">
          <mxGeometry relative="1" as="geometry" />
        </mxCell>
        <mxCell id="xRkeG2comi5cFcVgzmJm-5" value="Wie steht der heutige Kurs von (Währung)?" style="rounded=1;whiteSpace=wrap;html=1;fillColor=#ffe6cc;strokeColor=#d79b00;" vertex="1" parent="WIyWlLk6GJQsqaUBKTNV-1">
          <mxGeometry x="-480" y="220" width="120" height="60" as="geometry" />
        </mxCell>
        <mxCell id="xRkeG2comi5cFcVgzmJm-22" style="edgeStyle=orthogonalEdgeStyle;rounded=0;orthogonalLoop=1;jettySize=auto;html=1;entryX=0.5;entryY=0;entryDx=0;entryDy=0;" edge="1" parent="WIyWlLk6GJQsqaUBKTNV-1" source="xRkeG2comi5cFcVgzmJm-6">
          <mxGeometry relative="1" as="geometry">
            <mxPoint x="-619.9999999999995" y="340" as="targetPoint" />
            <Array as="points">
              <mxPoint x="-735" y="310" />
              <mxPoint x="-620" y="310" />
            </Array>
          </mxGeometry>
        </mxCell>
        <mxCell id="xRkeG2comi5cFcVgzmJm-23" style="edgeStyle=orthogonalEdgeStyle;rounded=0;orthogonalLoop=1;jettySize=auto;html=1;exitX=0.5;exitY=1;exitDx=0;exitDy=0;entryX=0.5;entryY=0;entryDx=0;entryDy=0;" edge="1" parent="WIyWlLk6GJQsqaUBKTNV-1" source="xRkeG2comi5cFcVgzmJm-6" target="xRkeG2comi5cFcVgzmJm-20">
          <mxGeometry relative="1" as="geometry" />
        </mxCell>
        <mxCell id="xRkeG2comi5cFcVgzmJm-6" value="Habe ich neue Benachrichtigungen?" style="rounded=1;whiteSpace=wrap;html=1;fillColor=#ffe6cc;strokeColor=#d79b00;" vertex="1" parent="WIyWlLk6GJQsqaUBKTNV-1">
          <mxGeometry x="-795" y="220" width="120" height="60" as="geometry" />
        </mxCell>
        <mxCell id="xRkeG2comi5cFcVgzmJm-46" style="edgeStyle=orthogonalEdgeStyle;rounded=0;orthogonalLoop=1;jettySize=auto;html=1;exitX=0.5;exitY=1;exitDx=0;exitDy=0;" edge="1" parent="WIyWlLk6GJQsqaUBKTNV-1">
          <mxGeometry relative="1" as="geometry">
            <mxPoint x="229.5" y="280" as="sourcePoint" />
            <mxPoint x="229.5" y="340" as="targetPoint" />
          </mxGeometry>
        </mxCell>
        <mxCell id="xRkeG2comi5cFcVgzmJm-7" value="Ich möchte eine neue Investition hinzufügen" style="rounded=1;whiteSpace=wrap;html=1;fillColor=#ffe6cc;strokeColor=#d79b00;" vertex="1" parent="WIyWlLk6GJQsqaUBKTNV-1">
          <mxGeometry x="170" y="220" width="120" height="60" as="geometry" />
        </mxCell>
        <mxCell id="xRkeG2comi5cFcVgzmJm-51" style="edgeStyle=orthogonalEdgeStyle;rounded=0;orthogonalLoop=1;jettySize=auto;html=1;exitX=0.5;exitY=1;exitDx=0;exitDy=0;" edge="1" parent="WIyWlLk6GJQsqaUBKTNV-1" source="xRkeG2comi5cFcVgzmJm-8" target="xRkeG2comi5cFcVgzmJm-50">
          <mxGeometry relative="1" as="geometry" />
        </mxCell>
        <mxCell id="xRkeG2comi5cFcVgzmJm-8" value="Kannst du mir Informationen zu (Währung) geben?" style="rounded=1;whiteSpace=wrap;html=1;fillColor=#ffe6cc;strokeColor=#d79b00;" vertex="1" parent="WIyWlLk6GJQsqaUBKTNV-1">
          <mxGeometry x="440" y="220" width="120" height="60" as="geometry" />
        </mxCell>
        <mxCell id="xRkeG2comi5cFcVgzmJm-26" style="edgeStyle=orthogonalEdgeStyle;rounded=0;orthogonalLoop=1;jettySize=auto;html=1;exitX=0.5;exitY=1;exitDx=0;exitDy=0;entryX=0.5;entryY=0;entryDx=0;entryDy=0;" edge="1" parent="WIyWlLk6GJQsqaUBKTNV-1" source="xRkeG2comi5cFcVgzmJm-20" target="xRkeG2comi5cFcVgzmJm-24">
          <mxGeometry relative="1" as="geometry" />
        </mxCell>
        <mxCell id="xRkeG2comi5cFcVgzmJm-27" style="edgeStyle=orthogonalEdgeStyle;rounded=0;orthogonalLoop=1;jettySize=auto;html=1;exitX=0.5;exitY=1;exitDx=0;exitDy=0;entryX=0.5;entryY=0;entryDx=0;entryDy=0;" edge="1" parent="WIyWlLk6GJQsqaUBKTNV-1" source="xRkeG2comi5cFcVgzmJm-20" target="xRkeG2comi5cFcVgzmJm-25">
          <mxGeometry relative="1" as="geometry" />
        </mxCell>
        <mxCell id="xRkeG2comi5cFcVgzmJm-20" value="Du hast (Wert) neue Benachrichtigungen. Soll ich sie dir vorlesen?" style="rounded=1;whiteSpace=wrap;html=1;fillColor=#f8cecc;strokeColor=#b85450;" vertex="1" parent="WIyWlLk6GJQsqaUBKTNV-1">
          <mxGeometry x="-915" y="340" width="170" height="50" as="geometry" />
        </mxCell>
        <mxCell id="xRkeG2comi5cFcVgzmJm-21" value="Du hast keine neuen Benachrichtigungen." style="rounded=1;whiteSpace=wrap;html=1;fillColor=#f8cecc;strokeColor=#b85450;" vertex="1" parent="WIyWlLk6GJQsqaUBKTNV-1">
          <mxGeometry x="-690" y="340" width="150" height="50" as="geometry" />
        </mxCell>
        <mxCell id="xRkeG2comi5cFcVgzmJm-30" style="edgeStyle=orthogonalEdgeStyle;rounded=0;orthogonalLoop=1;jettySize=auto;html=1;exitX=0.5;exitY=1;exitDx=0;exitDy=0;entryX=0.5;entryY=0;entryDx=0;entryDy=0;" edge="1" parent="WIyWlLk6GJQsqaUBKTNV-1" source="xRkeG2comi5cFcVgzmJm-24" target="xRkeG2comi5cFcVgzmJm-28">
          <mxGeometry relative="1" as="geometry" />
        </mxCell>
        <mxCell id="xRkeG2comi5cFcVgzmJm-24" value="Ja" style="rounded=1;whiteSpace=wrap;html=1;fillColor=#ffe6cc;strokeColor=#d79b00;" vertex="1" parent="WIyWlLk6GJQsqaUBKTNV-1">
          <mxGeometry x="-945" y="440" width="90" height="40" as="geometry" />
        </mxCell>
        <mxCell id="xRkeG2comi5cFcVgzmJm-25" value="Nein, danke." style="rounded=1;whiteSpace=wrap;html=1;fillColor=#ffe6cc;strokeColor=#d79b00;" vertex="1" parent="WIyWlLk6GJQsqaUBKTNV-1">
          <mxGeometry x="-815" y="440" width="90" height="40" as="geometry" />
        </mxCell>
        <mxCell id="xRkeG2comi5cFcVgzmJm-32" style="edgeStyle=orthogonalEdgeStyle;rounded=0;orthogonalLoop=1;jettySize=auto;html=1;exitX=0.5;exitY=1;exitDx=0;exitDy=0;entryX=0.5;entryY=0;entryDx=0;entryDy=0;" edge="1" parent="WIyWlLk6GJQsqaUBKTNV-1" source="xRkeG2comi5cFcVgzmJm-28" target="xRkeG2comi5cFcVgzmJm-31">
          <mxGeometry relative="1" as="geometry" />
        </mxCell>
        <mxCell id="xRkeG2comi5cFcVgzmJm-28" value="&lt;div&gt;Liest vor.&lt;/div&gt;&lt;div&gt;Du kannst die Benachrichtigungen jetzt auch auf dem Dashboard einsehen&lt;br&gt;&lt;/div&gt;" style="rounded=1;whiteSpace=wrap;html=1;fillColor=#f8cecc;strokeColor=#b85450;" vertex="1" parent="WIyWlLk6GJQsqaUBKTNV-1">
          <mxGeometry x="-980" y="520" width="160" height="76" as="geometry" />
        </mxCell>
        <mxCell id="xRkeG2comi5cFcVgzmJm-34" style="edgeStyle=orthogonalEdgeStyle;rounded=0;orthogonalLoop=1;jettySize=auto;html=1;exitX=0.5;exitY=1;exitDx=0;exitDy=0;entryX=0.5;entryY=0;entryDx=0;entryDy=0;" edge="1" parent="WIyWlLk6GJQsqaUBKTNV-1" source="xRkeG2comi5cFcVgzmJm-31" target="xRkeG2comi5cFcVgzmJm-33">
          <mxGeometry relative="1" as="geometry" />
        </mxCell>
        <mxCell id="xRkeG2comi5cFcVgzmJm-31" value="Danke!" style="rounded=1;whiteSpace=wrap;html=1;fillColor=#ffe6cc;strokeColor=#d79b00;" vertex="1" parent="WIyWlLk6GJQsqaUBKTNV-1">
          <mxGeometry x="-110" y="1000" width="90" height="40" as="geometry" />
        </mxCell>
        <mxCell id="xRkeG2comi5cFcVgzmJm-36" style="edgeStyle=orthogonalEdgeStyle;rounded=0;orthogonalLoop=1;jettySize=auto;html=1;exitX=0.5;exitY=1;exitDx=0;exitDy=0;" edge="1" parent="WIyWlLk6GJQsqaUBKTNV-1" source="xRkeG2comi5cFcVgzmJm-33" target="xRkeG2comi5cFcVgzmJm-35">
          <mxGeometry relative="1" as="geometry" />
        </mxCell>
        <mxCell id="xRkeG2comi5cFcVgzmJm-38" style="edgeStyle=orthogonalEdgeStyle;rounded=0;orthogonalLoop=1;jettySize=auto;html=1;exitX=0.5;exitY=1;exitDx=0;exitDy=0;entryX=0.5;entryY=0;entryDx=0;entryDy=0;" edge="1" parent="WIyWlLk6GJQsqaUBKTNV-1" source="xRkeG2comi5cFcVgzmJm-33" target="xRkeG2comi5cFcVgzmJm-37">
          <mxGeometry relative="1" as="geometry" />
        </mxCell>
        <mxCell id="xRkeG2comi5cFcVgzmJm-33" value="Kann ich noch etwas für dich tun?" style="rounded=1;whiteSpace=wrap;html=1;fillColor=#f8cecc;strokeColor=#b85450;" vertex="1" parent="WIyWlLk6GJQsqaUBKTNV-1">
          <mxGeometry x="-140" y="1090" width="150" height="50" as="geometry" />
        </mxCell>
        <mxCell id="xRkeG2comi5cFcVgzmJm-35" value="Nein." style="rounded=1;whiteSpace=wrap;html=1;fillColor=#ffe6cc;strokeColor=#d79b00;" vertex="1" parent="WIyWlLk6GJQsqaUBKTNV-1">
          <mxGeometry x="-200" y="1210" width="90" height="40" as="geometry" />
        </mxCell>
        <mxCell id="xRkeG2comi5cFcVgzmJm-81" style="edgeStyle=orthogonalEdgeStyle;rounded=0;orthogonalLoop=1;jettySize=auto;html=1;exitX=1;exitY=0.25;exitDx=0;exitDy=0;entryX=1;entryY=0.5;entryDx=0;entryDy=0;" edge="1" parent="WIyWlLk6GJQsqaUBKTNV-1" source="xRkeG2comi5cFcVgzmJm-37" target="WIyWlLk6GJQsqaUBKTNV-3">
          <mxGeometry relative="1" as="geometry">
            <Array as="points">
              <mxPoint x="940" y="1220" />
              <mxPoint x="940" y="120" />
            </Array>
          </mxGeometry>
        </mxCell>
        <mxCell id="xRkeG2comi5cFcVgzmJm-37" value="Ja." style="rounded=1;whiteSpace=wrap;html=1;fillColor=#ffe6cc;strokeColor=#d79b00;" vertex="1" parent="WIyWlLk6GJQsqaUBKTNV-1">
          <mxGeometry x="-20" y="1210" width="90" height="40" as="geometry" />
        </mxCell>
        <mxCell id="xRkeG2comi5cFcVgzmJm-42" style="edgeStyle=orthogonalEdgeStyle;rounded=0;orthogonalLoop=1;jettySize=auto;html=1;exitX=0.5;exitY=1;exitDx=0;exitDy=0;entryX=0.5;entryY=0;entryDx=0;entryDy=0;" edge="1" parent="WIyWlLk6GJQsqaUBKTNV-1" source="xRkeG2comi5cFcVgzmJm-39" target="xRkeG2comi5cFcVgzmJm-31">
          <mxGeometry relative="1" as="geometry" />
        </mxCell>
        <mxCell id="xRkeG2comi5cFcVgzmJm-39" value="Der heutige Kurs von (Währung) steht gerade bei (Wert)." style="rounded=1;whiteSpace=wrap;html=1;fillColor=#f8cecc;strokeColor=#b85450;" vertex="1" parent="WIyWlLk6GJQsqaUBKTNV-1">
          <mxGeometry x="-505" y="340" width="170" height="50" as="geometry" />
        </mxCell>
        <mxCell id="xRkeG2comi5cFcVgzmJm-48" style="edgeStyle=orthogonalEdgeStyle;rounded=0;orthogonalLoop=1;jettySize=auto;html=1;exitX=0.5;exitY=1;exitDx=0;exitDy=0;entryX=0.5;entryY=0;entryDx=0;entryDy=0;" edge="1" parent="WIyWlLk6GJQsqaUBKTNV-1">
          <mxGeometry relative="1" as="geometry">
            <mxPoint x="229.5" y="390" as="sourcePoint" />
            <mxPoint x="229.5" y="440" as="targetPoint" />
          </mxGeometry>
        </mxCell>
        <mxCell id="xRkeG2comi5cFcVgzmJm-45" value="Gerne, welche Währung soll es denn sein?" style="rounded=1;whiteSpace=wrap;html=1;fillColor=#f8cecc;strokeColor=#b85450;" vertex="1" parent="WIyWlLk6GJQsqaUBKTNV-1">
          <mxGeometry x="145" y="340" width="170" height="50" as="geometry" />
        </mxCell>
        <mxCell id="xRkeG2comi5cFcVgzmJm-76" style="edgeStyle=orthogonalEdgeStyle;rounded=0;orthogonalLoop=1;jettySize=auto;html=1;exitX=0.5;exitY=1;exitDx=0;exitDy=0;entryX=0.463;entryY=-0.02;entryDx=0;entryDy=0;entryPerimeter=0;" edge="1" parent="WIyWlLk6GJQsqaUBKTNV-1" source="xRkeG2comi5cFcVgzmJm-47" target="xRkeG2comi5cFcVgzmJm-75">
          <mxGeometry relative="1" as="geometry" />
        </mxCell>
        <mxCell id="xRkeG2comi5cFcVgzmJm-47" value="(Währung)" style="rounded=1;whiteSpace=wrap;html=1;fillColor=#ffe6cc;strokeColor=#d79b00;" vertex="1" parent="WIyWlLk6GJQsqaUBKTNV-1">
          <mxGeometry x="185" y="440" width="90" height="40" as="geometry" />
        </mxCell>
        <mxCell id="xRkeG2comi5cFcVgzmJm-53" style="edgeStyle=orthogonalEdgeStyle;rounded=0;orthogonalLoop=1;jettySize=auto;html=1;exitX=0.5;exitY=1;exitDx=0;exitDy=0;entryX=0.5;entryY=0;entryDx=0;entryDy=0;" edge="1" parent="WIyWlLk6GJQsqaUBKTNV-1" source="xRkeG2comi5cFcVgzmJm-50" target="xRkeG2comi5cFcVgzmJm-52">
          <mxGeometry relative="1" as="geometry" />
        </mxCell>
        <mxCell id="xRkeG2comi5cFcVgzmJm-50" value="Gerne, welche Währung soll es denn sein?" style="rounded=1;whiteSpace=wrap;html=1;fillColor=#f8cecc;strokeColor=#b85450;" vertex="1" parent="WIyWlLk6GJQsqaUBKTNV-1">
          <mxGeometry x="415" y="340" width="170" height="50" as="geometry" />
        </mxCell>
        <mxCell id="xRkeG2comi5cFcVgzmJm-60" style="edgeStyle=orthogonalEdgeStyle;rounded=0;orthogonalLoop=1;jettySize=auto;html=1;exitX=0.5;exitY=1;exitDx=0;exitDy=0;entryX=0.5;entryY=0;entryDx=0;entryDy=0;" edge="1" parent="WIyWlLk6GJQsqaUBKTNV-1" source="xRkeG2comi5cFcVgzmJm-52" target="xRkeG2comi5cFcVgzmJm-59">
          <mxGeometry relative="1" as="geometry" />
        </mxCell>
        <mxCell id="xRkeG2comi5cFcVgzmJm-52" value="(Währung)" style="rounded=1;whiteSpace=wrap;html=1;fillColor=#ffe6cc;strokeColor=#d79b00;" vertex="1" parent="WIyWlLk6GJQsqaUBKTNV-1">
          <mxGeometry x="455" y="440" width="90" height="40" as="geometry" />
        </mxCell>
        <mxCell id="xRkeG2comi5cFcVgzmJm-56" style="edgeStyle=orthogonalEdgeStyle;rounded=0;orthogonalLoop=1;jettySize=auto;html=1;exitX=0.5;exitY=1;exitDx=0;exitDy=0;" edge="1" parent="WIyWlLk6GJQsqaUBKTNV-1" source="xRkeG2comi5cFcVgzmJm-54" target="xRkeG2comi5cFcVgzmJm-55">
          <mxGeometry relative="1" as="geometry" />
        </mxCell>
        <mxCell id="xRkeG2comi5cFcVgzmJm-54" value="Ich möchte mehr Geld investieren." style="rounded=1;whiteSpace=wrap;html=1;fillColor=#ffe6cc;strokeColor=#d79b00;" vertex="1" parent="WIyWlLk6GJQsqaUBKTNV-1">
          <mxGeometry x="-145" y="220" width="120" height="60" as="geometry" />
        </mxCell>
        <mxCell id="xRkeG2comi5cFcVgzmJm-58" style="edgeStyle=orthogonalEdgeStyle;rounded=0;orthogonalLoop=1;jettySize=auto;html=1;exitX=0.5;exitY=1;exitDx=0;exitDy=0;entryX=0.5;entryY=0;entryDx=0;entryDy=0;" edge="1" parent="WIyWlLk6GJQsqaUBKTNV-1" source="xRkeG2comi5cFcVgzmJm-55" target="xRkeG2comi5cFcVgzmJm-57">
          <mxGeometry relative="1" as="geometry" />
        </mxCell>
        <mxCell id="xRkeG2comi5cFcVgzmJm-55" value="Gerne, wie viel soll es denn sein?" style="rounded=1;whiteSpace=wrap;html=1;fillColor=#f8cecc;strokeColor=#b85450;" vertex="1" parent="WIyWlLk6GJQsqaUBKTNV-1">
          <mxGeometry x="-170" y="340" width="170" height="50" as="geometry" />
        </mxCell>
        <mxCell id="xRkeG2comi5cFcVgzmJm-79" style="edgeStyle=orthogonalEdgeStyle;rounded=0;orthogonalLoop=1;jettySize=auto;html=1;exitX=0.5;exitY=1;exitDx=0;exitDy=0;" edge="1" parent="WIyWlLk6GJQsqaUBKTNV-1" source="xRkeG2comi5cFcVgzmJm-57" target="xRkeG2comi5cFcVgzmJm-78">
          <mxGeometry relative="1" as="geometry" />
        </mxCell>
        <mxCell id="xRkeG2comi5cFcVgzmJm-57" value="(Wert)" style="rounded=1;whiteSpace=wrap;html=1;fillColor=#ffe6cc;strokeColor=#d79b00;" vertex="1" parent="WIyWlLk6GJQsqaUBKTNV-1">
          <mxGeometry x="-130" y="440" width="90" height="40" as="geometry" />
        </mxCell>
        <mxCell id="xRkeG2comi5cFcVgzmJm-63" style="edgeStyle=orthogonalEdgeStyle;rounded=0;orthogonalLoop=1;jettySize=auto;html=1;exitX=0.5;exitY=1;exitDx=0;exitDy=0;entryX=0.5;entryY=0;entryDx=0;entryDy=0;" edge="1" parent="WIyWlLk6GJQsqaUBKTNV-1" source="xRkeG2comi5cFcVgzmJm-59" target="xRkeG2comi5cFcVgzmJm-61">
          <mxGeometry relative="1" as="geometry" />
        </mxCell>
        <mxCell id="xRkeG2comi5cFcVgzmJm-64" style="edgeStyle=orthogonalEdgeStyle;rounded=0;orthogonalLoop=1;jettySize=auto;html=1;exitX=0.5;exitY=1;exitDx=0;exitDy=0;entryX=0.5;entryY=0;entryDx=0;entryDy=0;" edge="1" parent="WIyWlLk6GJQsqaUBKTNV-1" source="xRkeG2comi5cFcVgzmJm-59" target="xRkeG2comi5cFcVgzmJm-62">
          <mxGeometry relative="1" as="geometry" />
        </mxCell>
        <mxCell id="xRkeG2comi5cFcVgzmJm-59" value="Information über die jeweilige Information....Möchtest du weitere Informationen hören?" style="rounded=1;whiteSpace=wrap;html=1;fillColor=#f8cecc;strokeColor=#b85450;" vertex="1" parent="WIyWlLk6GJQsqaUBKTNV-1">
          <mxGeometry x="412.5" y="520" width="175" height="60" as="geometry" />
        </mxCell>
        <mxCell id="xRkeG2comi5cFcVgzmJm-67" style="edgeStyle=orthogonalEdgeStyle;rounded=0;orthogonalLoop=1;jettySize=auto;html=1;exitX=0.5;exitY=1;exitDx=0;exitDy=0;entryX=0.445;entryY=0.025;entryDx=0;entryDy=0;entryPerimeter=0;" edge="1" parent="WIyWlLk6GJQsqaUBKTNV-1" source="xRkeG2comi5cFcVgzmJm-61" target="xRkeG2comi5cFcVgzmJm-65">
          <mxGeometry relative="1" as="geometry" />
        </mxCell>
        <mxCell id="xRkeG2comi5cFcVgzmJm-61" value="Ja" style="rounded=1;whiteSpace=wrap;html=1;fillColor=#ffe6cc;strokeColor=#d79b00;" vertex="1" parent="WIyWlLk6GJQsqaUBKTNV-1">
          <mxGeometry x="400" y="640" width="90" height="40" as="geometry" />
        </mxCell>
        <mxCell id="xRkeG2comi5cFcVgzmJm-62" value="Nein" style="rounded=1;whiteSpace=wrap;html=1;fillColor=#ffe6cc;strokeColor=#d79b00;" vertex="1" parent="WIyWlLk6GJQsqaUBKTNV-1">
          <mxGeometry x="510" y="640" width="90" height="40" as="geometry" />
        </mxCell>
        <mxCell id="xRkeG2comi5cFcVgzmJm-69" style="edgeStyle=orthogonalEdgeStyle;rounded=0;orthogonalLoop=1;jettySize=auto;html=1;exitX=0.5;exitY=1;exitDx=0;exitDy=0;entryX=0.5;entryY=0;entryDx=0;entryDy=0;" edge="1" parent="WIyWlLk6GJQsqaUBKTNV-1" source="xRkeG2comi5cFcVgzmJm-65" target="xRkeG2comi5cFcVgzmJm-66">
          <mxGeometry relative="1" as="geometry" />
        </mxCell>
        <mxCell id="xRkeG2comi5cFcVgzmJm-70" style="edgeStyle=orthogonalEdgeStyle;rounded=0;orthogonalLoop=1;jettySize=auto;html=1;exitX=0.5;exitY=1;exitDx=0;exitDy=0;entryX=0.5;entryY=0;entryDx=0;entryDy=0;" edge="1" parent="WIyWlLk6GJQsqaUBKTNV-1" source="xRkeG2comi5cFcVgzmJm-65" target="xRkeG2comi5cFcVgzmJm-68">
          <mxGeometry relative="1" as="geometry" />
        </mxCell>
        <mxCell id="xRkeG2comi5cFcVgzmJm-65" value="erweiterte Informationen... Möchtest du noch etwas über eine andere Währung erfahren?" style="rounded=1;whiteSpace=wrap;html=1;fillColor=#f8cecc;strokeColor=#b85450;" vertex="1" parent="WIyWlLk6GJQsqaUBKTNV-1">
          <mxGeometry x="356.5" y="730" width="200" height="80" as="geometry" />
        </mxCell>
        <mxCell id="xRkeG2comi5cFcVgzmJm-71" style="edgeStyle=orthogonalEdgeStyle;rounded=0;orthogonalLoop=1;jettySize=auto;html=1;exitX=0;exitY=0.5;exitDx=0;exitDy=0;entryX=0;entryY=0.5;entryDx=0;entryDy=0;" edge="1" parent="WIyWlLk6GJQsqaUBKTNV-1" source="xRkeG2comi5cFcVgzmJm-66" target="xRkeG2comi5cFcVgzmJm-50">
          <mxGeometry relative="1" as="geometry" />
        </mxCell>
        <mxCell id="xRkeG2comi5cFcVgzmJm-66" value="Ja" style="rounded=1;whiteSpace=wrap;html=1;fillColor=#ffe6cc;strokeColor=#d79b00;" vertex="1" parent="WIyWlLk6GJQsqaUBKTNV-1">
          <mxGeometry x="356.5" y="860" width="90" height="40" as="geometry" />
        </mxCell>
        <mxCell id="xRkeG2comi5cFcVgzmJm-73" style="edgeStyle=orthogonalEdgeStyle;rounded=0;orthogonalLoop=1;jettySize=auto;html=1;exitX=0.5;exitY=1;exitDx=0;exitDy=0;entryX=1;entryY=0.5;entryDx=0;entryDy=0;" edge="1" parent="WIyWlLk6GJQsqaUBKTNV-1" source="xRkeG2comi5cFcVgzmJm-68" target="xRkeG2comi5cFcVgzmJm-33">
          <mxGeometry relative="1" as="geometry" />
        </mxCell>
        <mxCell id="xRkeG2comi5cFcVgzmJm-68" value="Nein" style="rounded=1;whiteSpace=wrap;html=1;fillColor=#ffe6cc;strokeColor=#d79b00;" vertex="1" parent="WIyWlLk6GJQsqaUBKTNV-1">
          <mxGeometry x="470" y="860" width="90" height="40" as="geometry" />
        </mxCell>
        <mxCell id="xRkeG2comi5cFcVgzmJm-77" style="edgeStyle=orthogonalEdgeStyle;rounded=0;orthogonalLoop=1;jettySize=auto;html=1;exitX=0.5;exitY=1;exitDx=0;exitDy=0;entryX=0.5;entryY=0;entryDx=0;entryDy=0;" edge="1" parent="WIyWlLk6GJQsqaUBKTNV-1" source="xRkeG2comi5cFcVgzmJm-75" target="xRkeG2comi5cFcVgzmJm-31">
          <mxGeometry relative="1" as="geometry" />
        </mxCell>
        <mxCell id="xRkeG2comi5cFcVgzmJm-75" value="Die neue Währung wurde hinzugefügt" style="rounded=1;whiteSpace=wrap;html=1;fillColor=#f8cecc;strokeColor=#b85450;" vertex="1" parent="WIyWlLk6GJQsqaUBKTNV-1">
          <mxGeometry x="150" y="528" width="175" height="60" as="geometry" />
        </mxCell>
        <mxCell id="xRkeG2comi5cFcVgzmJm-86" style="edgeStyle=orthogonalEdgeStyle;rounded=0;orthogonalLoop=1;jettySize=auto;html=1;exitX=0.5;exitY=1;exitDx=0;exitDy=0;entryX=0.5;entryY=0;entryDx=0;entryDy=0;" edge="1" parent="WIyWlLk6GJQsqaUBKTNV-1" source="xRkeG2comi5cFcVgzmJm-78" target="xRkeG2comi5cFcVgzmJm-31">
          <mxGeometry relative="1" as="geometry" />
        </mxCell>
        <mxCell id="xRkeG2comi5cFcVgzmJm-78" value="Ich habe (Wert) hinzugefügt." style="rounded=1;whiteSpace=wrap;html=1;fillColor=#f8cecc;strokeColor=#b85450;" vertex="1" parent="WIyWlLk6GJQsqaUBKTNV-1">
          <mxGeometry x="-172.5" y="528" width="175" height="60" as="geometry" />
        </mxCell>
      </root>
    </mxGraphModel>
  </diagram>
</mxfile>
